<svg xmlns="http://www.w3.org/2000/svg" version="1.1" xmlns:xlink="http://www.w3.org/1999/xlink" xmlns:svgjs="http://svgjs.dev/svgjs" width="1000" height="1000" viewBox="0 0 1000 1000"><g transform="matrix(1,0,0,1,-0.14221556886212738,-0.14221556886229791)"><svg viewBox="0 0 334 334" data-background-color="#ffffff" preserveAspectRatio="xMidYMid meet" height="1000" width="1000" xmlns="http://www.w3.org/2000/svg" xmlns:xlink="http://www.w3.org/1999/xlink"><g id="tight-bounds" transform="matrix(1,0,0,1,0.04749999999998522,0.04750000000001364)"><svg viewBox="0 0 333.90454557049503 333.90454557049503" height="333.90454557049503" width="333.90454557049503"><g><svg></svg></g><g><svg viewBox="0 0 333.90454557049503 333.90454557049503" height="333.90454557049503" width="333.90454557049503"><g><path d="M0 166.952c0-92.205 74.747-166.952 166.952-166.952 92.205 0 166.952 74.747 166.953 166.952 0 92.205-74.747 166.952-166.953 166.953-92.205 0-166.952-74.747-166.952-166.953zM166.952 316.63c82.665 0 149.677-67.013 149.678-149.678 0-82.665-67.013-149.677-149.678-149.677-82.665 0-149.677 67.013-149.677 149.677 0 82.665 67.013 149.677 149.677 149.678z" data-fill-palette-color="tertiary" fill="#8789fe" stroke="transparent"></path><ellipse rx="160.27418187383762" ry="160.27418187383762" cx="166.95227278524752" cy="166.95227278524752" fill="#8789fe" stroke="transparent" stroke-width="0" fill-opacity="1" data-fill-palette-color="tertiary"></ellipse></g><g transform="matrix(1,0,0,1,104.50281758665051,71.17305217166896)"><svg viewBox="0 0 124.89891039719402 191.55844122715712" height="191.55844122715712" width="124.89891039719402"><g><svg viewBox="0 0 124.89891039719402 191.55844122715712" height="191.55844122715712" width="124.89891039719402"><g><svg viewBox="0 0 124.89891039719402 191.55844122715712" height="191.55844122715712" width="124.89891039719402"><g><svg viewBox="0 0 124.89891039719402 191.55844122715712" height="191.55844122715712" width="124.89891039719402"><g><svg viewBox="0 0 124.89891039719402 191.55844122715712" height="191.55844122715712" width="124.89891039719402"><g><svg viewBox="0 0 124.89891039719402 191.55844122715712" height="191.55844122715712" width="124.89891039719402"><g transform="matrix(1,0,0,1,0,0)"><svg width="124.89891039719402" viewBox="4.369999885559082 -31.3799991607666 20.459999084472656 31.3799991607666" height="191.55844122715712" data-palette-color="#ffffff"><path d="M23.22 0L6.32 0Q5.63 0 5.17-0.46L5.17-0.46Q4.37-1.15 4.37-1.9L4.37-1.9 4.37-29.43Q4.37-30.52 5.52-31.15L5.52-31.15Q5.86-31.26 6.21-31.38L6.21-31.38 22.59-31.38Q23.45-31.38 23.85-30.86 24.25-30.34 24.25-29.74 24.25-29.14 23.79-28.62 23.33-28.1 22.59-28.1L22.59-28.1 8.16-28.1 8.16-17.7 21.9-17.7Q22.76-17.7 23.16-17.21 23.56-16.72 23.56-16.09L23.56-16.09Q23.56-15.52 23.1-15.06 22.64-14.6 21.9-14.6L21.9-14.6 8.16-14.6 8.16-3.22 23.22-3.22Q24.02-3.22 24.43-2.7 24.83-2.18 24.83-1.55 24.83-0.92 24.4-0.46 23.97 0 23.22 0L23.22 0Z" opacity="1" transform="matrix(1,0,0,1,0,0)" fill="#ffffff" class="undefined-text-0" data-fill-palette-color="quaternary" id="text-0"></path></svg></g></svg></g></svg></g></svg></g><g></g></svg></g></svg></g></svg></g></svg></g><defs></defs></svg><rect width="333.90454557049503" height="333.90454557049503" fill="none" stroke="none" visibility="hidden"></rect></g></svg></g></svg>